<mxfile host="Electron" agent="Mozilla/5.0 (Windows NT 10.0; Win64; x64) AppleWebKit/537.36 (KHTML, like Gecko) draw.io/28.1.2 Chrome/138.0.7204.243 Electron/37.4.0 Safari/537.36" version="28.1.2">
  <diagram name="Страница — 1" id="GO5SVLWOB3Lkjg9ZGR-_" pageBackgroundColor="#FFFFFF" background="#FFFFFF">
    <mxGraphModel dx="2360" dy="2487" grid="1" gridSize="10" guides="1" tooltips="1" connect="1" arrows="1" fold="1" page="1" pageScale="1" pageWidth="827" pageHeight="1169" math="0" shadow="0">
      <root>
        <mxCell id="0" />
        <mxCell id="1" parent="0" />
        <mxCell id="bzv2vN_os3iNKShIvvnM-1" value="" style="rounded=0;whiteSpace=wrap;html=1;fillColor=#F5F7FA;strokeColor=none;" vertex="1" parent="1">
          <mxGeometry x="-320" y="-110" width="1950" height="700" as="geometry" />
        </mxCell>
        <mxCell id="73VYRBQwo865sVVE-b7A-33" value="Kirovets" style="rounded=1;whiteSpace=wrap;html=1;dashed=1;absoluteArcSize=1;arcSize=50;imageHeight=24;fillColor=#F5F7FA;align=center;fontSize=30;fontFamily=Courier New;verticalAlign=top;strokeWidth=3;spacing=20;spacingLeft=20;fontColor=#1A202C;strokeColor=#4A5568" parent="1" vertex="1">
          <mxGeometry x="-40" y="-80" width="1300" height="640" as="geometry" />
        </mxCell>
        <mxCell id="bzrHClwa-z-4b4--YWcv-13" style="edgeStyle=orthogonalEdgeStyle;rounded=0;orthogonalLoop=1;jettySize=auto;html=1;flowAnimation=0;strokeColor=#4A5568;strokeWidth=3;align=center;verticalAlign=middle;fontFamily=Helvetica;fontSize=11;fontColor=#1A202C;labelBackgroundColor=none;endArrow=open;endFill=0" parent="1" source="73VYRBQwo865sVVE-b7A-1" target="bzrHClwa-z-4b4--YWcv-3" edge="1">
          <mxGeometry relative="1" as="geometry">
            <Array as="points">
              <mxPoint x="170" y="120" />
              <mxPoint x="170" y="120" />
            </Array>
          </mxGeometry>
        </mxCell>
        <mxCell id="bzrHClwa-z-4b4--YWcv-14" style="edgeStyle=orthogonalEdgeStyle;rounded=0;orthogonalLoop=1;jettySize=auto;html=1;strokeColor=#4A5568;strokeWidth=3;align=center;verticalAlign=middle;fontFamily=Helvetica;fontSize=11;fontColor=#1A202C;labelBackgroundColor=none;endArrow=open;endFill=0" parent="1" source="73VYRBQwo865sVVE-b7A-1" target="73VYRBQwo865sVVE-b7A-3" edge="1">
          <mxGeometry relative="1" as="geometry">
            <Array as="points">
              <mxPoint x="170" y="400" />
              <mxPoint x="170" y="400" />
            </Array>
          </mxGeometry>
        </mxCell>
        <mxCell id="73VYRBQwo865sVVE-b7A-1" value="&lt;font style=&quot;background-color: rgb(204, 204, 204);&quot; face=&quot;Courier New&quot;&gt;&amp;nbsp;router&amp;nbsp;&lt;/font&gt;" style="rounded=1;whiteSpace=wrap;html=1;fontSize=20;spacing=10;strokeWidth=2;absoluteArcSize=1;arcSize=50;fontColor=#1A202C;strokeColor=#4A5568;fillColor=#F5F7FA" parent="1" vertex="1">
          <mxGeometry width="160" height="520" as="geometry" />
        </mxCell>
        <mxCell id="73VYRBQwo865sVVE-b7A-3" value="&lt;span style=&quot;background-color: rgb(204, 204, 204);&quot;&gt;&amp;nbsp;storage-2&amp;nbsp;&lt;/span&gt;&lt;span&gt; (memtx)&lt;/span&gt;" style="rounded=1;whiteSpace=wrap;html=1;labelPosition=center;verticalLabelPosition=middle;align=center;verticalAlign=top;fontFamily=Courier New;fontSize=20;spacing=10;strokeWidth=2;absoluteArcSize=1;arcSize=50;fontColor=#1A202C;strokeColor=#4A5568;fillColor=#F5F7FA" parent="1" vertex="1">
          <mxGeometry x="220" y="280" width="420" height="240" as="geometry" />
        </mxCell>
        <mxCell id="73VYRBQwo865sVVE-b7A-8" style="edgeStyle=orthogonalEdgeStyle;rounded=0;orthogonalLoop=1;jettySize=auto;html=1;endArrow=open;endFill=0;strokeWidth=3;fontColor=#1A202C;strokeColor=#4A5568" parent="1" edge="1">
          <mxGeometry relative="1" as="geometry">
            <mxPoint x="350" y="400" as="sourcePoint" />
            <mxPoint x="350" y="430" as="targetPoint" />
          </mxGeometry>
        </mxCell>
        <mxCell id="73VYRBQwo865sVVE-b7A-9" value="&lt;span style=&quot;background-color: rgb(204, 204, 204);&quot;&gt;&amp;nbsp;storage-2-1&amp;nbsp;&lt;/span&gt;" style="rounded=0;whiteSpace=wrap;html=1;fontFamily=Courier New;fontSize=20;strokeColor=#4A5568;align=center;verticalAlign=middle;fontColor=#1A202C;fillColor=#F5F7FA;strokeWidth=2" parent="1" vertex="1">
          <mxGeometry x="260" y="340" width="200" height="60" as="geometry" />
        </mxCell>
        <mxCell id="73VYRBQwo865sVVE-b7A-10" style="edgeStyle=orthogonalEdgeStyle;rounded=0;orthogonalLoop=1;jettySize=auto;html=1;endArrow=open;endFill=0;strokeWidth=3;fontColor=#1A202C;strokeColor=#4A5568" parent="1" edge="1">
          <mxGeometry relative="1" as="geometry">
            <mxPoint x="370" y="430" as="sourcePoint" />
            <mxPoint x="370" y="400" as="targetPoint" />
          </mxGeometry>
        </mxCell>
        <mxCell id="73VYRBQwo865sVVE-b7A-11" value="&lt;span style=&quot;background-color: rgb(204, 204, 204);&quot;&gt;&amp;nbsp;storage-2-2&amp;nbsp;&lt;/span&gt;" style="rounded=0;whiteSpace=wrap;html=1;fontFamily=Courier New;fontSize=20;strokeColor=#4A5568;align=center;verticalAlign=middle;fontColor=#1A202C;fillColor=#F5F7FA;strokeWidth=2" parent="1" vertex="1">
          <mxGeometry x="260" y="430" width="200" height="60" as="geometry" />
        </mxCell>
        <mxCell id="bzrHClwa-z-4b4--YWcv-15" style="edgeStyle=orthogonalEdgeStyle;rounded=0;orthogonalLoop=1;jettySize=auto;html=1;strokeColor=#4A5568;strokeWidth=3;align=center;verticalAlign=middle;fontFamily=Helvetica;fontSize=11;fontColor=#1A202C;labelBackgroundColor=none;endArrow=open;endFill=0" parent="1" source="73VYRBQwo865sVVE-b7A-17" target="bzrHClwa-z-4b4--YWcv-3" edge="1">
          <mxGeometry relative="1" as="geometry">
            <Array as="points">
              <mxPoint x="1030" y="120" />
              <mxPoint x="1030" y="120" />
            </Array>
          </mxGeometry>
        </mxCell>
        <mxCell id="bzrHClwa-z-4b4--YWcv-16" style="edgeStyle=orthogonalEdgeStyle;rounded=0;orthogonalLoop=1;jettySize=auto;html=1;strokeColor=#4A5568;strokeWidth=3;align=center;verticalAlign=middle;fontFamily=Helvetica;fontSize=11;fontColor=#1A202C;labelBackgroundColor=none;endArrow=open;endFill=0" parent="1" source="73VYRBQwo865sVVE-b7A-17" target="73VYRBQwo865sVVE-b7A-3" edge="1">
          <mxGeometry relative="1" as="geometry">
            <Array as="points">
              <mxPoint x="1030" y="400" />
              <mxPoint x="1030" y="400" />
            </Array>
          </mxGeometry>
        </mxCell>
        <mxCell id="73VYRBQwo865sVVE-b7A-17" value="&lt;font style=&quot;background-color: rgb(204, 204, 204);&quot; face=&quot;Courier New&quot;&gt;&amp;nbsp;exporter&amp;nbsp;&lt;/font&gt;" style="rounded=1;whiteSpace=wrap;html=1;fontSize=20;spacing=10;strokeWidth=2;verticalAlign=middle;absoluteArcSize=1;arcSize=50;fontColor=#1A202C;strokeColor=#4A5568;fillColor=#F5F7FA" parent="1" vertex="1">
          <mxGeometry x="1060" width="160" height="520" as="geometry" />
        </mxCell>
        <mxCell id="bzrHClwa-z-4b4--YWcv-11" value="&lt;font style=&quot;color: rgb(26, 32, 44);&quot;&gt;HTTP API&lt;/font&gt;" style="edgeStyle=orthogonalEdgeStyle;rounded=0;orthogonalLoop=1;jettySize=auto;html=1;verticalAlign=bottom;fontSize=20;align=center;spacing=5;spacingRight=25;spacingLeft=0;strokeWidth=3;endArrow=open;endFill=0;fontStyle=1;fontColor=#1A202C;strokeColor=#4A5568;labelBorderColor=none;labelBackgroundColor=none;" parent="1" source="73VYRBQwo865sVVE-b7A-23" target="73VYRBQwo865sVVE-b7A-1" edge="1">
          <mxGeometry x="-0.0476" relative="1" as="geometry">
            <mxPoint as="offset" />
          </mxGeometry>
        </mxCell>
        <mxCell id="73VYRBQwo865sVVE-b7A-23" value="&lt;font style=&quot;color: rgb(26, 32, 44);&quot;&gt;Пользователь&lt;/font&gt;" style="shape=umlActor;verticalLabelPosition=top;verticalAlign=bottom;html=1;outlineConnect=0;labelPosition=center;align=center;fontSize=25;spacing=10;strokeWidth=2;fontColor=#1A202C;strokeColor=#4A5568;fillColor=#F5F7FA" parent="1" vertex="1">
          <mxGeometry x="-240" y="230" width="30" height="60" as="geometry" />
        </mxCell>
        <mxCell id="73VYRBQwo865sVVE-b7A-35" value="&lt;font style=&quot;background-color: rgb(204, 204, 204);&quot; face=&quot;Courier New&quot;&gt;&amp;nbsp;task_coordinator&amp;nbsp;&lt;/font&gt;" style="rounded=1;whiteSpace=wrap;html=1;fontSize=20;spacing=10;strokeWidth=2;verticalAlign=top;absoluteArcSize=1;arcSize=50;fontColor=#1A202C;strokeColor=#4A5568;fillColor=#F5F7FA" parent="1" vertex="1">
          <mxGeometry x="680" y="165" width="300" height="150" as="geometry" />
        </mxCell>
        <mxCell id="bzrHClwa-z-4b4--YWcv-9" value="RPC" style="edgeStyle=orthogonalEdgeStyle;rounded=0;orthogonalLoop=1;jettySize=auto;html=1;strokeColor=#4A5568;strokeWidth=3;align=left;verticalAlign=bottom;fontFamily=Helvetica;fontSize=20;fontColor=#1A202C;labelBackgroundColor=none;endArrow=open;endFill=0;spacing=5;fontStyle=1" parent="1" source="73VYRBQwo865sVVE-b7A-37" target="73VYRBQwo865sVVE-b7A-17" edge="1">
          <mxGeometry x="-0.0053" relative="1" as="geometry">
            <mxPoint as="offset" />
          </mxGeometry>
        </mxCell>
        <mxCell id="73VYRBQwo865sVVE-b7A-37" value="Планировщик&lt;div&gt;задач&lt;/div&gt;" style="shape=process;whiteSpace=wrap;html=1;backgroundOutline=1;fontSize=20;strokeWidth=2;fontFamily=Courier New;fontColor=#1A202C;strokeColor=#4A5568;fillColor=#F5F7FA" parent="1" vertex="1">
          <mxGeometry x="730" y="230" width="200" height="60" as="geometry" />
        </mxCell>
        <mxCell id="bzrHClwa-z-4b4--YWcv-3" value="&lt;span style=&quot;background-color: rgb(204, 204, 204);&quot;&gt;&amp;nbsp;storage-1&amp;nbsp;&lt;/span&gt;&lt;span&gt;&amp;nbsp;(memtx)&lt;/span&gt;" style="rounded=1;whiteSpace=wrap;html=1;labelPosition=center;verticalLabelPosition=middle;align=center;verticalAlign=top;fontFamily=Courier New;fontSize=20;spacing=10;strokeWidth=2;absoluteArcSize=1;arcSize=50;fontColor=#1A202C;strokeColor=#4A5568;fillColor=#F5F7FA" parent="1" vertex="1">
          <mxGeometry x="220" width="420" height="240" as="geometry" />
        </mxCell>
        <mxCell id="bzrHClwa-z-4b4--YWcv-4" style="edgeStyle=orthogonalEdgeStyle;rounded=0;orthogonalLoop=1;jettySize=auto;html=1;endArrow=open;endFill=0;strokeWidth=3;fontColor=#1A202C;strokeColor=#4A5568" parent="1" edge="1">
          <mxGeometry relative="1" as="geometry">
            <mxPoint x="350" y="120" as="sourcePoint" />
            <mxPoint x="350" y="150" as="targetPoint" />
          </mxGeometry>
        </mxCell>
        <mxCell id="bzrHClwa-z-4b4--YWcv-5" value="&lt;span style=&quot;background-color: rgb(204, 204, 204);&quot;&gt;&amp;nbsp;storage-1-1&amp;nbsp;&lt;/span&gt;" style="rounded=0;whiteSpace=wrap;html=1;fontFamily=Courier New;fontSize=20;strokeColor=#4A5568;align=center;verticalAlign=middle;fontColor=#1A202C;fillColor=#F5F7FA;strokeWidth=2" parent="1" vertex="1">
          <mxGeometry x="260" y="60" width="200" height="60" as="geometry" />
        </mxCell>
        <mxCell id="bzrHClwa-z-4b4--YWcv-6" style="edgeStyle=orthogonalEdgeStyle;rounded=0;orthogonalLoop=1;jettySize=auto;html=1;endArrow=open;endFill=0;strokeWidth=3;fontColor=#1A202C;strokeColor=#4A5568" parent="1" edge="1">
          <mxGeometry relative="1" as="geometry">
            <mxPoint x="370" y="150" as="sourcePoint" />
            <mxPoint x="370" y="120" as="targetPoint" />
          </mxGeometry>
        </mxCell>
        <mxCell id="bzrHClwa-z-4b4--YWcv-7" value="&lt;span style=&quot;background-color: rgb(204, 204, 204);&quot;&gt;&amp;nbsp;storage-1-2&amp;nbsp;&lt;/span&gt;" style="rounded=0;whiteSpace=wrap;html=1;fontFamily=Courier New;fontSize=20;strokeColor=#4A5568;align=center;verticalAlign=middle;fontColor=#1A202C;fillColor=#F5F7FA;strokeWidth=2" parent="1" vertex="1">
          <mxGeometry x="260" y="150" width="200" height="60" as="geometry" />
        </mxCell>
        <mxCell id="bzrHClwa-z-4b4--YWcv-20" style="edgeStyle=orthogonalEdgeStyle;rounded=0;orthogonalLoop=1;jettySize=auto;html=1;strokeColor=#4A5568;strokeWidth=3;align=center;verticalAlign=middle;fontFamily=Helvetica;fontSize=11;fontColor=#1A202C;labelBackgroundColor=none;endArrow=open;endFill=0" parent="1" source="bzrHClwa-z-4b4--YWcv-17" edge="1">
          <mxGeometry relative="1" as="geometry">
            <mxPoint x="1220" y="160" as="targetPoint" />
            <Array as="points">
              <mxPoint x="1250" y="160" />
              <mxPoint x="1250" y="160" />
            </Array>
          </mxGeometry>
        </mxCell>
        <mxCell id="bzrHClwa-z-4b4--YWcv-17" value="&lt;font style=&quot;color: rgb(26, 32, 44);&quot;&gt;&lt;span style=&quot;font-size: 20px;&quot;&gt;Потоковый&amp;nbsp;&lt;/span&gt;&lt;span style=&quot;font-size: 20px; background-color: transparent;&quot;&gt;экспортёр&lt;/span&gt;&lt;/font&gt;&lt;div style=&quot;font-size: 20px;&quot;&gt;&lt;br&gt;&lt;/div&gt;&lt;div style=&quot;font-size: 20px;&quot;&gt;&lt;span style=&quot;font-weight: 700;&quot;&gt;Oracle Golden Gate&lt;/span&gt;&lt;/div&gt;&lt;div style=&quot;font-size: 20px;&quot;&gt;&lt;span style=&quot;font-weight: 700;&quot;&gt;(OGG)&lt;/span&gt;&lt;/div&gt;" style="shape=hexagon;perimeter=hexagonPerimeter2;whiteSpace=wrap;html=1;fixedSize=1;strokeWidth=2;fontColor=#1A202C;strokeColor=#4A5568;fillColor=#F5F7FA" parent="1" vertex="1">
          <mxGeometry x="1314" y="80" width="260" height="160" as="geometry" />
        </mxCell>
        <mxCell id="bzrHClwa-z-4b4--YWcv-21" style="edgeStyle=orthogonalEdgeStyle;rounded=0;orthogonalLoop=1;jettySize=auto;html=1;strokeColor=#4A5568;strokeWidth=3;align=center;verticalAlign=middle;fontFamily=Helvetica;fontSize=11;fontColor=#1A202C;labelBackgroundColor=none;endArrow=open;endFill=0" parent="1" source="bzrHClwa-z-4b4--YWcv-19" edge="1">
          <mxGeometry relative="1" as="geometry">
            <mxPoint x="1220" y="360" as="targetPoint" />
            <Array as="points">
              <mxPoint x="1240" y="360" />
              <mxPoint x="1240" y="360" />
            </Array>
          </mxGeometry>
        </mxCell>
        <mxCell id="bzrHClwa-z-4b4--YWcv-19" value="&lt;font style=&quot;color: rgb(26, 32, 44);&quot;&gt;&lt;span style=&quot;font-size: 20px;&quot;&gt;Пакетный&amp;nbsp;&lt;/span&gt;&lt;span style=&quot;font-size: 20px; background-color: transparent;&quot;&gt;экспортёр&lt;/span&gt;&lt;/font&gt;&lt;div style=&quot;font-size: 20px;&quot;&gt;&lt;br&gt;&lt;/div&gt;&lt;div style=&quot;font-size: 20px;&quot;&gt;&lt;b&gt;*.parquet&lt;/b&gt;&lt;/div&gt;" style="shape=hexagon;perimeter=hexagonPerimeter2;whiteSpace=wrap;html=1;fixedSize=1;strokeWidth=2;fontColor=#1A202C;strokeColor=#4A5568;fillColor=#F5F7FA" parent="1" vertex="1">
          <mxGeometry x="1320" y="280" width="260" height="160" as="geometry" />
        </mxCell>
        <mxCell id="wDTTvMudD0GF93HJuuze-1" value="&lt;font style=&quot;font-size: 20px;&quot;&gt;триггеры&lt;/font&gt;" style="shape=process;whiteSpace=wrap;html=1;backgroundOutline=1;strokeWidth=2;fontFamily=Courier New;fontColor=#1A202C;strokeColor=#4A5568;fillColor=#F5F7FA" parent="1" vertex="1">
          <mxGeometry x="480" y="70" width="140" height="40" as="geometry" />
        </mxCell>
        <mxCell id="wDTTvMudD0GF93HJuuze-2" value="&lt;font style=&quot;font-size: 20px;&quot;&gt;фильтры&lt;/font&gt;" style="shape=process;whiteSpace=wrap;html=1;backgroundOutline=1;strokeWidth=2;fontFamily=Courier New;fontColor=#1A202C;strokeColor=#4A5568;fillColor=#F5F7FA" parent="1" vertex="1">
          <mxGeometry x="480" y="130" width="140" height="40" as="geometry" />
        </mxCell>
        <mxCell id="wDTTvMudD0GF93HJuuze-3" style="edgeStyle=orthogonalEdgeStyle;rounded=0;orthogonalLoop=1;jettySize=auto;html=1;exitX=0.5;exitY=1;exitDx=0;exitDy=0;fontColor=#1A202C;strokeColor=#4A5568" parent="1" source="wDTTvMudD0GF93HJuuze-2" target="wDTTvMudD0GF93HJuuze-2" edge="1">
          <mxGeometry relative="1" as="geometry" />
        </mxCell>
        <mxCell id="wDTTvMudD0GF93HJuuze-4" value="&lt;font style=&quot;font-size: 20px;&quot;&gt;триггеры&lt;/font&gt;" style="shape=process;whiteSpace=wrap;html=1;backgroundOutline=1;strokeWidth=2;fontFamily=Courier New;fontColor=#1A202C;strokeColor=#4A5568;fillColor=#F5F7FA" parent="1" vertex="1">
          <mxGeometry x="480" y="350" width="140" height="40" as="geometry" />
        </mxCell>
        <mxCell id="wDTTvMudD0GF93HJuuze-5" value="&lt;font style=&quot;font-size: 20px;&quot;&gt;фильтры&lt;/font&gt;" style="shape=process;whiteSpace=wrap;html=1;backgroundOutline=1;strokeWidth=2;fontFamily=Courier New;fontColor=#1A202C;strokeColor=#4A5568;fillColor=#F5F7FA" parent="1" vertex="1">
          <mxGeometry x="480" y="410" width="140" height="40" as="geometry" />
        </mxCell>
      </root>
    </mxGraphModel>
  </diagram>
</mxfile>
